<svg 
    version="1.0" 
    xmlns="http://www.w3.org/2000/svg"
    width="214.000000pt" 
    height="214.000000pt" 
    viewBox="0 0 214.000000 214.000000"
    preserveAspectRatio="xMidYMid meet" 
    style="border-radius: 50%"
>
    <g 
        transform="translate(0.000000,214.000000) scale(0.100000,-0.100000)"
    >
            <path 
                fill="#766AC8" 
                d="M0 1070 l0 -1070 1070 0 1070 0 0 1070 0 1070 -1070 0 -1070 0 0
            -1070z m1094 738 c14 -13 82 -129 151 -258 70 -129 142 -263 161 -296 l34 -61
            -92 -22 c-50 -12 -92 -20 -93 -19 -1 2 -51 94 -111 205 -59 112 -111 199 -115
            195 -8 -7 -399 -830 -399 -838 0 -2 30 18 68 45 131 95 344 206 514 269 125
            47 405 104 493 101 22 -1 24 0 -135 -51 -276 -89 -572 -274 -882 -550 l-87
            -78 -149 0 -150 0 315 663 c222 468 323 670 344 690 38 35 96 37 133 5z m627
            -1108 c71 -129 129 -238 129 -242 0 -5 -45 -8 -99 -8 l-99 0 -93 170 c-106
            193 -91 183 -221 150 -100 -26 -202 -66 -320 -127 -51 -26 -97 -50 -103 -52
            -5 -2 15 17 45 43 79 69 202 148 301 196 107 51 276 110 308 107 19 -2 44 -40
            152 -237z"/>
    </g>
</svg>