<svg version="1.0" xmlns="http://www.w3.org/2000/svg"
 width="360.000000pt" height="360.000000pt" viewBox="0 0 360.000000 360.000000"
 preserveAspectRatio="xMidYMid meet">
<g transform="translate(0.000000,360.000000) scale(0.100000,-0.100000)"
fill="#000000" stroke="none">
<path d="M0 1800 l0 -1800 2160 0 2160 0 0 1800 0 1800 -2160 0 -2160 0 0
-1800z m2174 668 c14 -13 82 -129 151 -258 70 -129 142 -263 161 -296 l34 -61
-92 -22 c-50 -12 -92 -20 -93 -19 -1 2 -51 94 -111 205 -59 112 -111 199 -115
195 -7 -7 -399 -830 -399 -838 0 -2 30 18 68 45 187 136 449 259 672 316 90
24 288 55 335 54 22 -1 24 0 -135 -51 -278 -89 -570 -271 -882 -550 l-87 -78
-149 0 -150 0 315 663 c222 468 323 670 344 690 38 35 96 37 133 5z m627
-1108 c71 -129 129 -238 129 -242 0 -5 -45 -8 -99 -8 l-99 0 -93 170 c-106
193 -91 183 -221 150 -103 -27 -210 -69 -327 -131 -52 -27 -96 -49 -98 -49 -3
0 19 21 49 46 78 67 201 147 299 194 107 51 276 110 307 107 20 -2 45 -41 153
-237z"/>
</g>
</svg>
